<svg xmlns="http://www.w3.org/2000/svg" xmlns:xlink="http://www.w3.org/1999/xlink" viewBox="0 0 592.5 487.11"><defs><style>.cls-1{font-size:104.99px;fill:none;font-family:AgueroSerifFree-Regular, Aguero Serif Free;}.cls-2{fill:#fff;}.cls-3{clip-path:url(#clip-path);}.cls-4{fill:url(#linear-gradient);}</style><clipPath id="clip-path"><text class="cls-1" transform="translate(96.95 118.99)">Espectromusic</text></clipPath><linearGradient id="linear-gradient" x1="79.82" y1="81.83" x2="533.04" y2="81.83" gradientUnits="userSpaceOnUse"><stop offset="0" stop-color="#672d8c"/><stop offset="0.11" stop-color="#49338b"/><stop offset="0.2" stop-color="#0255a1"/><stop offset="0.3" stop-color="#0ba6ec"/><stop offset="0.37" stop-color="#05a7ad"/><stop offset="0.44" stop-color="#009f73"/><stop offset="0.52" stop-color="#1aac3d"/><stop offset="0.58" stop-color="#8acf1d"/><stop offset="0.64" stop-color="#b4dc12"/><stop offset="0.69" stop-color="#f4dc01"/><stop offset="0.76" stop-color="#ff9f00"/><stop offset="0.83" stop-color="#f1720e"/><stop offset="1" stop-color="#df1a23"/></linearGradient></defs><title>Asset 13</title><g id="Layer_2" data-name="Layer 2"><g id="Layer_1-2" data-name="Layer 1"><rect class="cls-2" width="592.5" height="484.5"/><rect x="63.85" y="402.4" width="19.35" height="84.71" rx="9.68" ry="9.68"/><rect x="34.01" y="358.48" width="19.35" height="128.62" rx="9.68" ry="9.68"/><rect x="4.17" y="433.98" width="19.35" height="53.12" rx="9.68" ry="9.68"/><rect x="504.41" y="444.75" width="20.98" height="42.36" rx="10.49" ry="10.49"/><rect x="535.88" y="418.67" width="20.98" height="68.43" rx="10.49" ry="10.49"/><rect x="567.35" y="380.86" width="20.98" height="106.24" rx="10.49" ry="10.49"/><rect x="95.32" y="324.92" width="20.98" height="162.19" rx="10.49" ry="10.49"/><rect x="158.26" y="286.81" width="20.98" height="200.3" rx="10.49" ry="10.49"/><rect x="221.2" y="229.86" width="20.98" height="257.25" rx="10.49" ry="10.49"/><rect x="284.13" y="196.3" width="20.98" height="290.81" rx="10.49" ry="10.49"/><rect x="347.07" y="250.84" width="20.98" height="236.27" rx="10.49" ry="10.49"/><rect x="410.01" y="286.81" width="20.98" height="200.3" rx="10.49" ry="10.49"/><rect x="472.94" y="406.01" width="20.98" height="81.09" rx="10.49" ry="10.49"/><rect x="126.79" y="215.72" width="20.98" height="271.39" rx="10.49" ry="10.49"/><rect x="189.73" y="313.25" width="20.98" height="173.85" rx="10.49" ry="10.49"/><rect x="252.67" y="162.73" width="20.98" height="324.38" rx="10.49" ry="10.49"/><rect x="315.6" y="274.62" width="20.98" height="212.49" rx="10.49" ry="10.49"/><rect x="378.54" y="303.81" width="20.98" height="183.29" rx="10.49" ry="10.49"/><rect x="441.48" y="368.97" width="20.98" height="118.13" rx="10.49" ry="10.49"/><g class="cls-3"><rect class="cls-4" x="79.82" y="29.96" width="453.22" height="103.73"/></g></g></g></svg>