<svg xmlns="http://www.w3.org/2000/svg" xmlns:xlink="http://www.w3.org/1999/xlink" viewBox="0 0 635.23 151.47"><defs><style>.cls-1{font-size:37.74px;fill:none;font-family:AgueroSerifFree-Regular, Aguero Serif Free;}.cls-2{letter-spacing:-0.05em;}.cls-3{letter-spacing:0em;}.cls-4{opacity:0.55;}.cls-5{clip-path:url(#clip-path);}.cls-6{fill:url(#linear-gradient);}.cls-7{font-size:80px;font-family:Avenir-Roman, Avenir;}.cls-8{letter-spacing:-0.02em;}.cls-9{letter-spacing:0em;}</style><clipPath id="clip-path"><text class="cls-1" transform="translate(57.45 45.26) scale(1.12 1)">VOL<tspan class="cls-2" x="40.91" y="0">T</tspan><tspan class="cls-3" x="54.99" y="0">AR</tspan></text></clipPath><linearGradient id="linear-gradient" y1="25.05" x2="242.48" y2="25.05" gradientUnits="userSpaceOnUse"><stop offset="0" stop-color="#672d8c"/><stop offset="0.11" stop-color="#49338b"/><stop offset="0.2" stop-color="#0255a1"/><stop offset="0.3" stop-color="#0ba6ec"/><stop offset="0.37" stop-color="#05a7ad"/><stop offset="0.44" stop-color="#009f73"/><stop offset="0.52" stop-color="#1aac3d"/><stop offset="0.58" stop-color="#8acf1d"/><stop offset="0.64" stop-color="#b4dc12"/><stop offset="0.69" stop-color="#f4dc01"/><stop offset="0.76" stop-color="#ff9f00"/><stop offset="0.83" stop-color="#f1720e"/><stop offset="1" stop-color="#df1a23"/></linearGradient></defs><title>Bomber Music</title><g id="Layer_2" data-name="Layer 2"><g id="Layer_1-2" data-name="Layer 1"><path class="cls-4" d="M69.9-26.88h0A37.14,37.14,0,0,1,107,10.27v87.5a0,0,0,0,1,0,0H69.9a0,0,0,0,1,0,0V-26.88A0,0,0,0,1,69.9-26.88Z" transform="translate(53.03 123.92) rotate(-90)"/><path d="M76.47-27.93h0A35.75,35.75,0,0,1,112.22,7.83V92a0,0,0,0,1,0,0H76.47a0,0,0,0,1,0,0v-120A0,0,0,0,1,76.47-27.93Z" transform="translate(62.28 126.41) rotate(-90)"/><g class="cls-5"><rect class="cls-6" width="242.48" height="50.1"/><text class="cls-7" transform="translate(171.32 132.27)">Lo<tspan class="cls-8" x="87.52" y="0">r</tspan><tspan class="cls-9" x="114.24" y="0">em ipsum</tspan></text></g></g></g></svg>