<svg xmlns="http://www.w3.org/2000/svg" xmlns:xlink="http://www.w3.org/1999/xlink" viewBox="0 0 1220.18 295.52"><defs><style>.cls-1{font-size:210.38px;fill:none;font-family:AgueroSerifFree-Regular, Aguero Serif Free;}.cls-2{opacity:0.55;}.cls-3{clip-path:url(#clip-path);}.cls-4{fill:url(#linear-gradient);}</style><clipPath id="clip-path"><text class="cls-1" transform="translate(284.07 252.29) scale(1.01 1)">creditos</text></clipPath><linearGradient id="linear-gradient" y1="139.63" x2="1220.18" y2="139.63" gradientUnits="userSpaceOnUse"><stop offset="0" stop-color="#672d8c"/><stop offset="0.11" stop-color="#49338b"/><stop offset="0.2" stop-color="#0255a1"/><stop offset="0.3" stop-color="#0ba6ec"/><stop offset="0.37" stop-color="#05a7ad"/><stop offset="0.44" stop-color="#009f73"/><stop offset="0.52" stop-color="#1aac3d"/><stop offset="0.58" stop-color="#8acf1d"/><stop offset="0.64" stop-color="#b4dc12"/><stop offset="0.69" stop-color="#f4dc01"/><stop offset="0.76" stop-color="#ff9f00"/><stop offset="0.83" stop-color="#f1720e"/><stop offset="1" stop-color="#df1a23"/></linearGradient></defs><title>creditos1</title><g id="Layer_2" data-name="Layer 2"><g id="Layer_1-2" data-name="Layer 1"><path class="cls-2" d="M390-126.83H478A119.11,119.11,0,0,1,597.08-7.72V510.85a0,0,0,0,1,0,0H390a0,0,0,0,1,0,0V-126.83A0,0,0,0,1,390-126.83Z" transform="translate(301.56 685.57) rotate(-90)"/><path d="M424-133.76h80.15A119.11,119.11,0,0,1,623.23-14.64V480a0,0,0,0,1,0,0H424a0,0,0,0,1,0,0V-133.76A0,0,0,0,1,424-133.76Z" transform="translate(350.47 696.72) rotate(-90)"/><g class="cls-3"><rect class="cls-4" width="1220.18" height="279.26"/></g></g></g></svg>