<svg xmlns="http://www.w3.org/2000/svg" xmlns:xlink="http://www.w3.org/1999/xlink" viewBox="0 0 572.8 128.4"><defs><style>.cls-1{font-size:91.41px;fill:none;font-family:AgueroSerifFree-Regular, Aguero Serif Free;}.cls-2{letter-spacing:-0.07em;}.cls-3{opacity:0.55;}.cls-4{clip-path:url(#clip-path);}.cls-5{fill:url(#linear-gradient);}</style><clipPath id="clip-path"><text class="cls-1" transform="translate(133.36 109.61) scale(1.09 1)">PL<tspan class="cls-2" x="62.61" y="0">A</tspan><tspan x="95.24" y="0">Y</tspan></text></clipPath><linearGradient id="linear-gradient" y1="60.67" x2="572.8" y2="60.67" gradientUnits="userSpaceOnUse"><stop offset="0" stop-color="#672d8c"/><stop offset="0.11" stop-color="#49338b"/><stop offset="0.2" stop-color="#0255a1"/><stop offset="0.3" stop-color="#0ba6ec"/><stop offset="0.37" stop-color="#05a7ad"/><stop offset="0.44" stop-color="#009f73"/><stop offset="0.52" stop-color="#1aac3d"/><stop offset="0.58" stop-color="#8acf1d"/><stop offset="0.64" stop-color="#b4dc12"/><stop offset="0.69" stop-color="#f4dc01"/><stop offset="0.76" stop-color="#ff9f00"/><stop offset="0.83" stop-color="#f1720e"/><stop offset="1" stop-color="#df1a23"/></linearGradient></defs><title>PLay</title><g id="Layer_2" data-name="Layer 2"><g id="Layer_1-2" data-name="Layer 1"><path class="cls-3" d="M132.34-28.37h0a90,90,0,0,1,90,90V195.22a0,0,0,0,1,0,0h-90a0,0,0,0,1,0,0V-28.37A0,0,0,0,1,132.34-28.37Z" transform="translate(93.89 260.74) rotate(-90)"/><path d="M144.56-32.38h0A86.58,86.58,0,0,1,231.14,54.2V182.82a0,0,0,0,1,0,0H144.56a0,0,0,0,1,0,0V-32.38A0,0,0,0,1,144.56-32.38Z" transform="translate(112.63 263.07) rotate(-90)"/><g class="cls-4"><rect class="cls-5" width="572.8" height="121.33"/></g></g></g></svg>