<svg xmlns="http://www.w3.org/2000/svg" xmlns:xlink="http://www.w3.org/1999/xlink" viewBox="0 0 572.8 131.66"><defs><style>.cls-1{font-size:91.41px;fill:none;font-family:AgueroSerifFree-Regular, Aguero Serif Free;}.cls-2{opacity:0.55;}.cls-3{clip-path:url(#clip-path);}.cls-4{fill:url(#linear-gradient);}</style><clipPath id="clip-path"><text class="cls-1" transform="translate(133.36 109.61) scale(1.09 1)">SAIR</text></clipPath><linearGradient id="linear-gradient" y1="60.67" x2="572.8" y2="60.67" gradientUnits="userSpaceOnUse"><stop offset="0" stop-color="#672d8c"/><stop offset="0.11" stop-color="#49338b"/><stop offset="0.2" stop-color="#0255a1"/><stop offset="0.3" stop-color="#0ba6ec"/><stop offset="0.37" stop-color="#05a7ad"/><stop offset="0.44" stop-color="#009f73"/><stop offset="0.52" stop-color="#1aac3d"/><stop offset="0.58" stop-color="#8acf1d"/><stop offset="0.64" stop-color="#b4dc12"/><stop offset="0.69" stop-color="#f4dc01"/><stop offset="0.76" stop-color="#ff9f00"/><stop offset="0.83" stop-color="#f1720e"/><stop offset="1" stop-color="#df1a23"/></linearGradient></defs><title>Quit</title><g id="Layer_2" data-name="Layer 2"><g id="Layer_1-2" data-name="Layer 1"><path class="cls-2" d="M132.34-25.11h0a90,90,0,0,1,90,90V198.47a0,0,0,0,1,0,0h-90a0,0,0,0,1,0,0V-25.11A0,0,0,0,1,132.34-25.11Z" transform="translate(90.63 264) rotate(-90)"/><path d="M144.56-29.12h0a86.58,86.58,0,0,1,86.58,86.58V186.08a0,0,0,0,1,0,0H144.56a0,0,0,0,1,0,0V-29.12A0,0,0,0,1,144.56-29.12Z" transform="translate(109.37 266.32) rotate(-90)"/><g class="cls-3"><rect class="cls-4" width="572.8" height="121.33"/></g></g></g></svg>