<svg xmlns="http://www.w3.org/2000/svg" xmlns:xlink="http://www.w3.org/1999/xlink" viewBox="0 0 1548.94 512.85"><defs><style>.cls-1{font-size:210.38px;fill:none;font-family:AgueroSerifFree-Regular, Aguero Serif Free;}.cls-2{letter-spacing:-0.05em;}.cls-3{opacity:0.55;}.cls-4{clip-path:url(#clip-path);}.cls-5{fill:url(#linear-gradient);}.cls-6{font-size:80px;font-family:Avenir-Roman, Avenir;}.cls-7{letter-spacing:-0.02em;}.cls-8{letter-spacing:0em;}</style><clipPath id="clip-path"><text class="cls-1" transform="translate(284.07 252.29) scale(1.01 1)">vol<tspan class="cls-2" x="203.43" y="0">t</tspan><tspan x="271.81" y="0">ar</tspan></text></clipPath><linearGradient id="linear-gradient" y1="139.63" x2="1220.18" y2="139.63" gradientUnits="userSpaceOnUse"><stop offset="0" stop-color="#672d8c"/><stop offset="0.11" stop-color="#49338b"/><stop offset="0.2" stop-color="#0255a1"/><stop offset="0.3" stop-color="#0ba6ec"/><stop offset="0.37" stop-color="#05a7ad"/><stop offset="0.44" stop-color="#009f73"/><stop offset="0.52" stop-color="#1aac3d"/><stop offset="0.58" stop-color="#8acf1d"/><stop offset="0.64" stop-color="#b4dc12"/><stop offset="0.69" stop-color="#f4dc01"/><stop offset="0.76" stop-color="#ff9f00"/><stop offset="0.83" stop-color="#f1720e"/><stop offset="1" stop-color="#df1a23"/></linearGradient></defs><title>voltar2</title><g id="Layer_2" data-name="Layer 2"><g id="Layer_1-2" data-name="Layer 1"><path class="cls-3" d="M348-123.22H436A119.11,119.11,0,0,1,555.08-4.1V514.46a0,0,0,0,1,0,0H348a0,0,0,0,1,0,0V-123.22A0,0,0,0,1,348-123.22Z" transform="translate(255.94 647.19) rotate(-90)"/><path d="M382-130.14h80.15A119.11,119.11,0,0,1,581.23-11V483.62a0,0,0,0,1,0,0H382a0,0,0,0,1,0,0V-130.14A0,0,0,0,1,382-130.14Z" transform="translate(304.85 658.33) rotate(-90)"/><g class="cls-4"><rect class="cls-5" width="1220.18" height="279.26"/><text class="cls-6" transform="translate(1085.02 493.65)">Lo<tspan class="cls-7" x="87.52" y="0">r</tspan><tspan class="cls-8" x="114.24" y="0">em ipsum</tspan></text><text class="cls-6" transform="translate(412.65 315.13)">Lo<tspan class="cls-7" x="87.52" y="0">r</tspan><tspan class="cls-8" x="114.24" y="0">em ipsum</tspan></text></g></g></g></svg>